<svg width="24" height="24" viewBox="0 0 24 24" fill="none" xmlns="http://www.w3.org/2000/svg">
<circle cx="12" cy="12" r="12" fill="white"/>
<path d="M12.5003 15.3664C14.0835 15.3664 15.3669 14.083 15.3669 12.4999C15.3669 10.9167 14.0835 9.6333 12.5003 9.6333C10.9172 9.6333 9.63379 10.9167 9.63379 12.4999C9.63379 14.083 10.9172 15.3664 12.5003 15.3664Z" fill="#041E30"/>
<path fill-rule="evenodd" clip-rule="evenodd" d="M4 12.5C4 7.80497 7.80744 4 12.5028 4C15.0266 4 17.2953 5.10122 18.8503 6.84432L16.4825 8.95664C15.5042 7.86 14.0849 7.17306 12.5028 7.17306C9.55866 7.17306 7.17306 9.55862 7.17306 12.5C7.17306 15.4414 9.55866 17.8269 12.5028 17.8269C14.2587 17.8269 15.8162 16.9799 16.7897 15.6659L19.3393 17.5548C17.7929 19.6421 15.3062 21 12.5028 21C7.80744 21 4 17.195 4 12.5Z" fill="#041E30"/>
</svg>
