<svg width="96" height="96" viewBox="0 0 96 96" fill="none" xmlns="http://www.w3.org/2000/svg">
<circle cx="48" cy="48" r="48" fill="#F6FBFE"/>
<path d="M48 24C47.45 24 47 23.55 47 23V14C47 13.45 47.45 13 48 13C48.55 13 49 13.45 49 14V23C49 23.55 48.55 24 48 24Z" fill="#F27931"/>
<path d="M62 83H34C33.45 83 33 82.55 33 82V28C33 27.45 33.45 27 34 27H62C62.55 27 63 27.45 63 28V82C63 82.55 62.55 83 62 83ZM35 81H61V29H35V81Z" fill="#F27931"/>
<path d="M58 29H38C37.45 29 37 28.55 37 28V23C37 22.45 37.45 22 38 22H58C58.55 22 59 22.45 59 23V28C59 28.55 58.55 29 58 29ZM39 27H57V24H39V27Z" fill="#F27931"/>
<path d="M44 35H40C39.45 35 39 34.55 39 34C39 33.45 39.45 33 40 33H44C44.55 33 45 33.45 45 34C45 34.55 44.55 35 44 35Z" fill="#F27931"/>
<path d="M56 35H52C51.45 35 51 34.55 51 34C51 33.45 51.45 33 52 33H56C56.55 33 57 33.45 57 34C57 34.55 56.55 35 56 35Z" fill="#F27931"/>
<path d="M44 43H40C39.45 43 39 42.55 39 42C39 41.45 39.45 41 40 41H44C44.55 41 45 41.45 45 42C45 42.55 44.55 43 44 43Z" fill="#F27931"/>
<path d="M56 43H52C51.45 43 51 42.55 51 42C51 41.45 51.45 41 52 41H56C56.55 41 57 41.45 57 42C57 42.55 56.55 43 56 43Z" fill="#F27931"/>
<path d="M45 51H40C39.45 51 39 50.55 39 50C39 49.45 39.45 49 40 49H45C45.55 49 46 49.45 46 50C46 50.55 45.55 51 45 51Z" fill="#F27931"/>
<path d="M56 51H52C51.45 51 51 50.55 51 50C51 49.45 51.45 49 52 49H56C56.55 49 57 49.45 57 50C57 50.55 56.55 51 56 51Z" fill="#F27931"/>
<path d="M45 59H40C39.45 59 39 58.55 39 58C39 57.45 39.45 57 40 57H45C45.55 57 46 57.45 46 58C46 58.55 45.55 59 45 59Z" fill="#F27931"/>
<path d="M56 59H52C51.45 59 51 58.55 51 58C51 57.45 51.45 57 52 57H56C56.55 57 57 57.45 57 58C57 58.55 56.55 59 56 59Z" fill="#F27931"/>
<path d="M45 68H40C39.45 68 39 67.55 39 67C39 66.45 39.45 66 40 66H45C45.55 66 46 66.45 46 67C46 67.55 45.55 68 45 68Z" fill="#F27931"/>
<path d="M56 68H52C51.45 68 51 67.55 51 67C51 66.45 51.45 66 52 66H56C56.55 66 57 66.45 57 67C57 67.55 56.55 68 56 68Z" fill="#F27931"/>
<path d="M77 80C76.45 80 76 79.55 76 79V41H65C64.45 41 64 40.55 64 40C64 39.45 64.45 39 65 39H77C77.55 39 78 39.45 78 40V79C78 79.55 77.55 80 77 80Z" fill="#F27931"/>
<path d="M72 51H67C66.45 51 66 50.55 66 50C66 49.45 66.45 49 67 49H72C72.55 49 73 49.45 73 50C73 50.55 72.55 51 72 51Z" fill="#F27931"/>
<path d="M72 59H67C66.45 59 66 58.55 66 58C66 57.45 66.45 57 67 57H72C72.55 57 73 57.45 73 58C73 58.55 72.55 59 72 59Z" fill="#F27931"/>
<path d="M72 68H67C66.45 68 66 67.55 66 67C66 66.45 66.45 66 67 66H72C72.55 66 73 66.45 73 67C73 67.55 72.55 68 72 68Z" fill="#F27931"/>
<path d="M19 80C18.45 80 18 79.55 18 79V40C18 39.45 18.45 39 19 39H31C31.55 39 32 39.45 32 40C32 40.55 31.55 41 31 41H20V79C20 79.55 19.55 80 19 80Z" fill="#F27931"/>
<path d="M29 51H24C23.45 51 23 50.55 23 50C23 49.45 23.45 49 24 49H29C29.55 49 30 49.45 30 50C30 50.55 29.55 51 29 51Z" fill="#F27931"/>
<path d="M29 59H24C23.45 59 23 58.55 23 58C23 57.45 23.45 57 24 57H29C29.55 57 30 57.45 30 58C30 58.55 29.55 59 29 59Z" fill="#F27931"/>
<path d="M29 68H24C23.45 68 23 67.55 23 67C23 66.45 23.45 66 24 66H29C29.55 66 30 66.45 30 67C30 67.55 29.55 68 29 68Z" fill="#F27931"/>
<path d="M84 83H12C11.45 83 11 82.55 11 82C11 81.45 11.45 81 12 81H84C84.55 81 85 81.45 85 82C85 82.55 84.55 83 84 83Z" fill="#F27931"/>
<rect x="6" y="6" width="84" height="84" fill="white" fill-opacity="0.01"/>
</svg>
