<svg width="24" height="24" viewBox="0 0 24 24" fill="none" xmlns="http://www.w3.org/2000/svg">
<path d="M21.6401 16.3465L18.2534 15.9599C17.4401 15.8665 16.6401 16.1465 16.0667 16.7199L13.6134 19.1732C9.84005 17.2532 6.74672 14.1732 4.82672 10.3865L7.29339 7.91985C7.86672 7.34652 8.14672 6.54652 8.05339 5.73318L7.66672 2.37318C7.50672 1.02652 6.37339 0.0131836 5.01339 0.0131836H2.70672C1.20005 0.0131836 -0.0532791 1.26652 0.0400542 2.77318C0.746721 14.1599 9.85339 23.2532 21.2267 23.9599C22.7334 24.0532 23.9867 22.7998 23.9867 21.2932V18.9865C24.0001 17.6399 22.9867 16.5065 21.6401 16.3465Z" fill="black"/>
</svg>
