<svg width="96" height="96" viewBox="0 0 96 96" fill="none" xmlns="http://www.w3.org/2000/svg">
<circle cx="48" cy="48" r="48" fill="#F6FBFE"/>
<rect x="6" y="6" width="84" height="84" fill="white" fill-opacity="0.01"/>
<g clip-path="url(#clip0)">
<path d="M68.6827 83.1519C68.1536 83.1519 67.7207 82.719 67.7207 82.1899V52.3671C67.7207 51.838 68.1536 51.4051 68.6827 51.4051H69.6448C70.1739 51.4051 70.6068 51.838 70.6068 52.3671C70.6068 52.8962 70.1739 53.3291 69.6448 53.3291V82.1899C69.6448 82.719 69.2118 83.1519 68.6827 83.1519Z" fill="#F27931"/>
<path d="M61.9503 83.1519C61.4212 83.1519 60.9883 82.719 60.9883 82.1899V65.8354C60.9883 65.3063 61.4212 64.8734 61.9503 64.8734C62.4794 64.8734 62.9123 65.3063 62.9123 65.8354V82.1899C62.9123 82.719 62.4794 83.1519 61.9503 83.1519Z" fill="#F27931"/>
<path d="M61.9499 37.9367C58.4962 37.9367 56.1777 35.2334 56.1777 31.2026C56.1777 27.1717 58.4962 24.4684 61.9499 24.4684C65.4036 24.4684 67.722 27.1717 67.722 31.2026C67.722 35.2334 65.4036 37.9367 61.9499 37.9367ZM61.9499 26.3924C59.1119 26.3924 58.1018 28.8745 58.1018 31.2026C58.1018 33.5307 59.1119 36.0127 61.9499 36.0127C64.7879 36.0127 65.798 33.5307 65.798 31.2026C65.798 28.8745 64.7879 26.3924 61.9499 26.3924Z" fill="#F27931"/>
<path d="M27.4885 83.1519C26.9594 83.1519 26.5265 82.719 26.5265 82.1899V53.3291C25.9974 53.3291 25.5645 52.8962 25.5645 52.3671C25.5645 51.838 25.9974 51.4051 26.5265 51.4051H27.4885C28.0176 51.4051 28.4505 51.838 28.4505 52.3671V82.1899C28.4505 82.719 28.0176 83.1519 27.4885 83.1519Z" fill="#F27931"/>
<path d="M34.2237 83.1519C33.6946 83.1519 33.2617 82.719 33.2617 82.1899V65.8354C33.2617 65.3063 33.6946 64.8734 34.2237 64.8734C34.7529 64.8734 35.1858 65.3063 35.1858 65.8354V82.1899C35.1858 82.719 34.7529 83.1519 34.2237 83.1519Z" fill="#F27931"/>
<path d="M34.2233 37.9367C30.7697 37.9367 28.4512 35.2334 28.4512 31.2026C28.4512 27.1717 30.7697 24.4684 34.2233 24.4684C37.677 24.4684 39.9955 27.1717 39.9955 31.2026C39.9955 35.2334 37.677 37.9367 34.2233 37.9367ZM34.2233 26.3924C31.3853 26.3924 30.3752 28.8745 30.3752 31.2026C30.3752 33.5307 31.3853 36.0127 34.2233 36.0127C37.0613 36.0127 38.0714 33.5307 38.0714 31.2026C38.0714 28.8745 37.0613 26.3924 34.2233 26.3924Z" fill="#F27931"/>
<path d="M40.9574 83.1519C40.4283 83.1519 39.9954 82.719 39.9954 82.1899V47.5569C39.9954 47.2972 40.1012 47.0567 40.284 46.8739C40.3418 46.8162 46.4218 40.7266 47.9225 34.079C49 29.2785 49.7696 25.7093 49.7696 25.7093C49.8562 25.2476 49.76 24.7666 49.4906 24.3914C49.2597 24.0739 48.9326 23.8623 48.5671 23.8142C47.9706 23.6891 47.5666 23.7276 47.278 23.9104C46.8258 24.2086 46.5949 24.9397 46.4795 25.4881L45.3924 30.0962C43.4683 37.9174 40.4476 40.8131 34.2329 40.8131H32.3088C27.3737 40.8131 23.6506 44.1225 23.6506 48.5093V66.7878H24.6126C25.1418 66.7878 25.5747 67.2207 25.5747 67.7499C25.5747 68.279 25.1418 68.7119 24.6126 68.7119H22.6886C22.1595 68.7119 21.7266 68.279 21.7266 67.7499V48.519C21.7266 43.0354 26.2769 38.8987 32.3088 38.8987H34.2329C38.8795 38.8987 41.5924 37.4653 43.5261 29.6537L44.6035 25.0937C44.8633 23.7949 45.4116 22.8521 46.2197 22.3134C46.9509 21.8324 47.8552 21.7073 48.9038 21.9286C49.7407 22.044 50.52 22.5347 51.0587 23.285C51.6263 24.0835 51.838 25.1033 51.6552 26.0942C51.6552 26.1134 50.8856 29.6921 49.8081 34.5023C48.365 40.9286 43.2182 46.6045 41.9387 47.9514V82.1899C41.9195 82.719 41.4866 83.1519 40.9574 83.1519Z" fill="#F27931"/>
<path d="M85.0389 70.6455H83.1148C82.5857 70.6455 82.1528 70.2126 82.1528 69.6835C82.1528 69.1544 82.5857 68.7215 83.1148 68.7215H84.0769V49.481C84.0769 43.6222 79.2571 42.7468 76.3807 42.7468H70.6085C70.0794 42.7468 69.6465 42.3139 69.6465 41.7848C69.6465 41.2557 70.0794 40.8228 70.6085 40.8228H76.3807C82.4029 40.8228 86.0009 44.0552 86.0009 49.481V69.6835C86.0009 70.2126 85.568 70.6455 85.0389 70.6455Z" fill="#F27931"/>
<path d="M80.2277 83.1519C79.6985 83.1519 79.2656 82.719 79.2656 82.1899V54.2911C79.2656 53.762 79.6985 53.3291 80.2277 53.3291H81.1897C81.7188 53.3291 82.1517 53.762 82.1517 54.2911C82.1517 54.8202 81.7188 55.2532 81.1897 55.2532V82.1899C81.1897 82.719 80.7568 83.1519 80.2277 83.1519Z" fill="#F27931"/>
<path d="M73.4933 83.1519C72.9642 83.1519 72.5312 82.719 72.5312 82.1899V71.6076C72.5312 71.0785 72.9642 70.6456 73.4933 70.6456C74.0224 70.6456 74.4553 71.0785 74.4553 71.6076V82.1899C74.4553 82.719 74.0224 83.1519 73.4933 83.1519Z" fill="#F27931"/>
<path d="M74.4561 38.8987C71.4834 38.8987 69.4824 36.5803 69.4824 33.1266C69.4824 29.6729 71.4834 27.3544 74.4561 27.3544C77.4287 27.3544 79.4298 29.6729 79.4298 33.1266C79.4298 36.5803 77.4287 38.8987 74.4561 38.8987ZM74.4561 29.2785C71.6277 29.2785 71.4065 32.2223 71.4065 33.1266C71.4065 34.0309 71.6277 36.9747 74.4561 36.9747C77.2844 36.9747 77.5057 34.0309 77.5057 33.1266C77.5057 32.2223 77.2844 29.2785 74.4561 29.2785Z" fill="#F27931"/>
<path d="M12.8861 70.6455H10.962C10.4329 70.6455 10 70.2126 10 69.6835V49.481C10 44.0552 13.598 40.8228 19.6203 40.8228H25.3924C25.9215 40.8228 26.3544 41.2557 26.3544 41.7848C26.3544 42.3139 25.9215 42.7468 25.3924 42.7468H19.6203C16.7438 42.7468 11.9241 43.6222 11.9241 49.481V68.7215H12.8861C13.4152 68.7215 13.8481 69.1544 13.8481 69.6835C13.8481 70.2126 13.4152 70.6455 12.8861 70.6455Z" fill="#F27931"/>
<path d="M15.7717 83.1519C15.2426 83.1519 14.8097 82.719 14.8097 82.1899V55.2532C14.2806 55.2532 13.8477 54.8202 13.8477 54.2911C13.8477 53.762 14.2806 53.3291 14.8097 53.3291H15.7717C16.3008 53.3291 16.7337 53.762 16.7337 54.2911V82.1899C16.7337 82.719 16.3008 83.1519 15.7717 83.1519Z" fill="#F27931"/>
<path d="M22.5069 83.1519C21.9778 83.1519 21.5449 82.719 21.5449 82.1899V71.6076C21.5449 71.0785 21.9778 70.6456 22.5069 70.6456C23.0361 70.6456 23.469 71.0785 23.469 71.6076V82.1899C23.469 82.719 23.0361 83.1519 22.5069 83.1519Z" fill="#F27931"/>
<path d="M21.544 38.8987C18.5713 38.8987 16.5703 36.5803 16.5703 33.1266C16.5703 29.6729 18.5713 27.3544 21.544 27.3544C24.5166 27.3544 26.5177 29.6729 26.5177 33.1266C26.5177 36.5803 24.5166 38.8987 21.544 38.8987ZM21.544 29.2785C18.7156 29.2785 18.4944 32.2223 18.4944 33.1266C18.4944 34.0309 18.7156 36.9747 21.544 36.9747C24.3723 36.9747 24.5936 34.0309 24.5936 33.1266C24.5936 32.2223 24.3723 29.2785 21.544 29.2785Z" fill="#F27931"/>
<path d="M48.4816 17.7342C47.9524 17.7342 47.5195 17.3013 47.5195 16.7722V11.962C47.5195 11.4329 47.9524 11 48.4816 11C49.0107 11 49.4436 11.4329 49.4436 11.962V16.7722C49.4436 17.3013 49.0107 17.7342 48.4816 17.7342Z" fill="#F27931"/>
<path d="M41.747 20.6203C41.4968 20.6203 41.2563 20.5241 41.0639 20.3413L37.6583 16.9357C37.2832 16.5605 37.2832 15.9544 37.6583 15.5792C38.0335 15.2041 38.6396 15.2041 39.0148 15.5792L42.4204 18.9848C42.7956 19.36 42.7956 19.9661 42.4204 20.3413C42.2376 20.5241 41.9971 20.6203 41.747 20.6203Z" fill="#F27931"/>
<path d="M54.6949 20.6203C54.4448 20.6203 54.2043 20.5241 54.0119 20.3413C53.6367 19.9661 53.6367 19.36 54.0119 18.9848L57.4174 15.5792C57.7926 15.2041 58.3987 15.2041 58.7739 15.5792C59.1491 15.9544 59.1491 16.5605 58.7739 16.9357L55.3683 20.3413C55.1952 20.5241 54.945 20.6203 54.6949 20.6203Z" fill="#F27931"/>
<path d="M73.4933 68.7215H71.5692C71.0401 68.7215 70.6072 68.2886 70.6072 67.7595C70.6072 67.2304 71.0401 66.7975 71.5692 66.7975H72.5313V48.519C72.5313 44.1322 68.8082 40.8228 63.873 40.8228H61.949C55.7439 40.8228 52.7135 37.9175 50.7895 30.1154L49.7601 26.1615C49.6254 25.6516 49.9333 25.1225 50.4528 24.9878C50.9627 24.8532 51.4918 25.161 51.6265 25.6805L52.6558 29.6537C54.5895 37.4653 57.3024 38.8987 61.949 38.8987H63.873C69.9049 38.8987 74.4553 43.0354 74.4553 48.519V67.7595C74.4553 68.2886 74.0224 68.7215 73.4933 68.7215Z" fill="#F27931"/>
<path d="M55.216 83.1519C54.6868 83.1519 54.2539 82.719 54.2539 82.1898V47.9802C53.0995 46.8835 49.2129 42.9392 47.2792 37.5423C47.0965 37.042 47.3562 36.4936 47.8565 36.3109C48.3567 36.1281 48.9051 36.3878 49.0879 36.8881C51.1658 42.6602 55.8028 46.7873 55.8509 46.8354C56.0625 47.0182 56.178 47.278 56.178 47.5569V82.1898C56.178 82.719 55.7451 83.1519 55.216 83.1519Z" fill="#F27931"/>
</g>
<defs>
<clipPath id="clip0">
<rect x="10" y="11" width="76" height="72.1519" fill="white"/>
</clipPath>
</defs>
</svg>
