<svg width="96" height="96" viewBox="0 0 96 96" fill="none" xmlns="http://www.w3.org/2000/svg">
<circle cx="48" cy="48" r="48" fill="#F7FCFF"/>
<rect x="12" y="6" width="84" height="84" fill="white" fill-opacity="0.01"/>
<g clip-path="url(#clip0)">
<path d="M58.17 85C48.98 85 41.5 77.52 41.5 68.33C41.5 59.14 48.98 51.66 58.17 51.66C67.36 51.66 74.84 59.14 74.84 68.33C74.84 77.52 67.36 85 58.17 85ZM58.17 53.66C50.08 53.66 43.5 60.24 43.5 68.33C43.5 76.42 50.08 83 58.17 83C66.26 83 72.84 76.42 72.84 68.33C72.84 60.24 66.26 53.66 58.17 53.66Z" fill="#F27931"/>
<path d="M89.4999 85H58.1699C57.6199 85 57.1699 84.55 57.1699 84C57.1699 83.45 57.6199 83 58.1699 83H89.2499V79.78H75.5799C75.0299 79.78 74.5799 79.33 74.5799 78.78C74.5799 78.23 75.0299 77.78 75.5799 77.78H89.4999C90.4599 77.78 91.2499 78.56 91.2499 79.53V83.26C91.2499 84.22 90.4699 85 89.4999 85Z" fill="#F27931"/>
<path d="M85.0298 79.78H75.0898C74.5398 79.78 74.0898 79.33 74.0898 78.78C74.0898 78.23 74.5398 77.78 75.0898 77.78H84.7698V74.56H77.0698C76.5198 74.56 76.0698 74.11 76.0698 73.56C76.0698 73.01 76.5198 72.56 77.0698 72.56H85.0198C85.9798 72.56 86.7698 73.34 86.7698 74.31V78.04C86.7698 78.99 85.9898 79.78 85.0298 79.78Z" fill="#F27931"/>
<path d="M87.2703 74.55H77.0703C76.5203 74.55 76.0703 74.1 76.0703 73.55C76.0703 73 76.5203 72.55 77.0703 72.55H87.0103V69.33H77.0703C76.5203 69.33 76.0703 68.88 76.0703 68.33C76.0703 67.78 76.5203 67.33 77.0703 67.33H87.2603C88.2203 67.33 89.0103 68.11 89.0103 69.08V72.81C89.0103 73.77 88.2303 74.55 87.2703 74.55Z" fill="#F27931"/>
<path d="M85.0298 69.33H78.0798C77.5298 69.33 77.0798 68.88 77.0798 68.33C77.0798 67.78 77.5298 67.33 78.0798 67.33H84.7798V64.11H73.0898C72.5398 64.11 72.0898 63.66 72.0898 63.11C72.0898 62.56 72.5398 62.11 73.0898 62.11H85.0298C85.9898 62.11 86.7798 62.89 86.7798 63.86V67.59C86.7698 68.55 85.9898 69.33 85.0298 69.33Z" fill="#F27931"/>
<path d="M67.0499 52.01C66.6699 52.01 66.3099 51.8 66.1399 51.44C61.6599 41.91 53.2599 34.48 51.6699 33.95C51.1499 33.77 50.8699 33.21 51.0399 32.68C51.2199 32.16 51.7799 31.87 52.3099 32.05C54.3599 32.74 63.1699 40.42 67.9499 50.58C68.1899 51.08 67.9699 51.68 67.4699 51.91C67.3399 51.98 67.1999 52.01 67.0499 52.01Z" fill="#F27931"/>
<path d="M44 85C25.35 85 17 73.95 17 63C17 47.54 32.86 33 35.68 32.05C36.2 31.87 36.77 32.15 36.95 32.68C37.13 33.2 36.85 33.77 36.32 33.95C34 34.73 19 48.58 19 63C19 76.82 31.56 83 44 83C45.03 83 46.07 82.96 47.08 82.88C47.64 82.84 48.11 83.25 48.16 83.8C48.2 84.35 47.8 84.83 47.24 84.88C46.18 84.96 45.09 85 44 85Z" fill="#F27931"/>
<path d="M51.9997 34H35.9997C35.4497 34 34.9997 33.55 34.9997 33C34.9997 32.45 35.4497 32 35.9997 32H50.7197L50.2197 30H35.9997C35.6897 30 35.3997 29.86 35.2097 29.62C35.0197 29.38 34.9497 29.06 35.0297 28.76L35.9597 25.03L33.0397 15.29C32.7797 14.32 32.9697 13.38 33.5597 12.61C34.3097 11.63 35.6597 11 36.9997 11H50.9997C52.3897 11 53.7597 11.63 54.4897 12.6C55.0697 13.37 55.2397 14.32 54.9597 15.28L51.9597 25.29C51.8297 25.71 51.4397 26 50.9997 26H37.7797L37.2797 28H50.9997C51.4597 28 51.8597 28.31 51.9697 28.76L52.9697 32.76C53.0397 33.06 52.9797 33.38 52.7897 33.62C52.5997 33.86 52.3097 34 51.9997 34ZM37.7397 24H50.2497L53.0397 14.71C53.1397 14.36 53.0897 14.07 52.8897 13.8C52.5397 13.33 51.7597 13 50.9997 13H36.9997C36.2797 13 35.5197 13.34 35.1497 13.82C34.9297 14.1 34.8697 14.4 34.9597 14.74L37.7397 24Z" fill="#F27931"/>
</g>
<defs>
<clipPath id="clip0">
<rect x="17" y="11" width="74.25" height="74" fill="white"/>
</clipPath>
</defs>
</svg>
