<svg width="53" height="19" viewBox="0 0 53 19" fill="none" xmlns="http://www.w3.org/2000/svg">
<path d="M13.344 16.32C12.048 17.52 10.552 18.12 8.856 18.12C7.736 18.12 6.68 17.912 5.688 17.496C4.696 17.064 3.824 16.464 3.072 15.696C2.336 14.928 1.752 14.008 1.32 12.936C0.888 11.848 0.672 10.656 0.672 9.36C0.672 8.192 0.888 7.088 1.32 6.048C1.752 5.008 2.344 4.104 3.096 3.336C3.864 2.568 4.768 1.96 5.808 1.512C6.848 1.064 7.968 0.839999 9.168 0.839999C10.752 0.839999 12.136 1.176 13.32 1.848C14.504 2.504 15.392 3.408 15.984 4.56L13.056 6.768C12.672 6 12.112 5.408 11.376 4.992C10.656 4.56 9.872 4.344 9.024 4.344C8.368 4.344 7.768 4.48 7.224 4.752C6.696 5.008 6.24 5.376 5.856 5.856C5.472 6.32 5.176 6.864 4.968 7.488C4.76 8.112 4.656 8.784 4.656 9.504C4.656 10.24 4.768 10.92 4.992 11.544C5.216 12.168 5.528 12.712 5.928 13.176C6.328 13.624 6.8 13.976 7.344 14.232C7.904 14.488 8.52 14.616 9.192 14.616C10.728 14.616 12.112 13.904 13.344 12.48V11.952H10.032V9.096H16.608V18H13.344V16.32ZM32.5301 18V7.8L28.8341 15.216H26.7221L23.0261 7.8V18H19.0901V0.959999H23.3621L27.7781 9.864L32.2181 0.959999H36.4661V18H32.5301ZM52.6026 4.416H47.4186V18H43.4826V4.416H38.2746V0.959999H52.6026V4.416Z" fill="#F27931"/>
</svg>
